<svg xmlns="http://www.w3.org/2000/svg" xmlns:xlink="http://www.w3.org/1999/xlink" viewBox="0 0 400 300" width="406" height="306" class="illustration styles_illustrationTablet__1DWOa"><defs><linearGradient id="linear-gradient" x1="95.39" y1="163.11" x2="64.18" y2="193.8" gradientUnits="userSpaceOnUse"><stop offset="0" stop-color="#d4a397"></stop><stop offset="1" stop-color="#fff"></stop></linearGradient><linearGradient id="linear-gradient-2" x1="216.79" y1="185.85" x2="180.29" y2="219.18" xlink:href="#linear-gradient"></linearGradient></defs><title>PP</title><g style="isolation: isolate;"><g id="Layer_2" data-name="Layer 2"><path d="M195,272,22.48,170.1C17,167,12.27,162,17.63,158.64L190.75,58.86c2.6-1.61,6.54-2.66,9.18-1.13L381,162.82c5.49,3.19,6.48,12.1,1,15.29L217.71,271.89A22.94,22.94,0,0,1,195,272Z" fill="#db3b3b"></path><path d="M127.94,141.05,101.36,130.5,26.89,167.08l70,40.57c9.82-5.69,19.67-11.34,29.27-17.39q8.51-5.37,17-10.72C140.1,166.1,134.13,153.47,127.94,141.05Z" fill="url(#linear-gradient)" style="mix-blend-mode: multiply;"></path><polyline points="185.43 153.25 110.97 189.83 212.81 248.87 302.9 199.88" fill="url(#linear-gradient-2)" style="mix-blend-mode: multiply;"></polyline><path d="M241.09,101.78a59.44,59.44,0,0,0-10.92-4.32l-4.28,7.28-2.42-8.91a110.39,110.39,0,0,0-17.57-1.93l-2.79,10.51L202,93.82c-5.48,0-11,.21-16.41.67l-1.22,11.08L180.09,95c-4.17.46-8.23,1-12.12,1.65l3,8.9-6.58-8.3a273.42,273.42,0,0,0-31.66,7.4s.61,4.86,25.78,13.5c1.71.59,3.57,1.11,5.55,1.58l6.26-6.62-1.18,7.67c4.1.73,8.54,1.28,13.14,1.68l1.45-9.35,1.7,9.6c3.56.26,7.19.43,10.8.55l1.34-10.15,2.1,10.24c5,.11,9.94.1,14.53,0l1.31-8.79,2.71,8.71c3.12-.08,6-.18,8.65-.29v-8.42s2.58,5.9,3.38,8.26c6.17-.31,10.05-.62,10.05-.62S278.34,121.26,241.09,101.78Z" fill="#5dd32c"></path><path d="M167.26,94.54l.72,2.14c3.88-.62,7.95-1.19,12.12-1.65l-.8-2Z" fill="none"></path><path d="M206.79,90.59l-.88,3.32a110.39,110.39,0,0,1,17.57,1.93l-.55-2Z" fill="none"></path><path d="M186,90.59l-.43,3.9c5.4-.46,10.93-.71,16.41-.67l-.23-2.25Z" fill="none"></path><path d="M257.34,115.55c-16,.15-31.63-4-47.49-5.22-16.68-1.28-33.43-.9-50.1-2.35-9.06-.79-18-2.6-27.08-3.19.22.35.43.69.63,1,7.71.55,15.33,2,23,2.82,8.32.86,16.67,1.2,25,1.46,17,.53,33.64,1.34,50.44,4,8.44,1.32,16.9,2.54,25.46,2.47C257.27,116.21,257.3,115.88,257.34,115.55Z" fill="#093e3e" opacity="0.29"></path><path d="M182.28,122.5h0c-4.6-.4-9-.95-13.14-1.68L169,122Z" fill="none"></path><path d="M195.92,125.64l.31-2.34c-3.61-.11-7.23-.29-10.8-.55l.18,1Z" fill="none"></path><path d="M226.88,123.78V123c-2.62.11-5.53.21-8.65.29l.42,1.34Z" fill="none"></path><path d="M213.87,125.64l.33-2.22c-4.59.07-9.51.08-14.53,0L200,125Z" fill="none"></path><path d="M304.31,70.64a287.5,287.5,0,0,1-11.5,35.69,100.79,100.79,0,0,1-23.06,35c-11.14,10.86-24.62,19-37,28.3q-10.24,7.69-20.58,15.24c-1.55,1.13-8.16,4.43-8.74,6.35,0,0-2.6,8.53,3.71,10.76s73.82-2.23,98.67-41.17,14.47-84.95,7.79-90.14S304.31,70.64,304.31,70.64Z" fill="#ffd527"></path><path d="M207.38,197s64.53-23.8,85.41-55.09l-74.13,38s-13.61,9-14.43,10.09-1.15,1.13-1.12,2.48S207.38,197,207.38,197Z" fill="#ffbc27"></path><path d="M314.36,75.53a287.5,287.5,0,0,1-4.84,37.19,100.79,100.79,0,0,1-16.34,38.57c-9,12.7-20.77,23.15-31.26,34.54q-8.68,9.42-17.48,18.72c-1.32,1.39-7.22,5.83-7.45,7.83,0,0-1,8.86,5.6,9.91s72.19-15.57,89.57-58.38S331,77.74,323.48,73.84,314.36,75.53,314.36,75.53Z" fill="#ffe04a"></path><path d="M324.13,74.26A64.61,64.61,0,0,1,328.38,90a230.29,230.29,0,0,1,2.41,22.94c1,17.23-.25,34.88-7,50.93A83.85,83.85,0,0,1,302,193.93c-16.67,14.74-37.84,23.09-59.33,28.36,6.88,1,72.18-15.68,89.51-58.39C349.06,122.27,332,80.14,324.13,74.26Z" fill="#e8c018"></path><path d="M243.64,217.12a8,8,0,0,0-3.5-4.26,1.69,1.69,0,0,0-1.32-.21,1.77,1.77,0,0,0-2.27,1.72,9.85,9.85,0,0,0,1.59,5.36c1,1.47,2.95,3.76,4.87,2.36C244.47,221,244.17,218.61,243.64,217.12Z" fill="#875421"></path><path d="M285.19,63.16c-.16,0-4,6.55-4.15,6.5Q277,76,272.6,82.11a100.79,100.79,0,0,1-30.85,28.33c-13.44,7.84-28.49,12.47-42.77,18.49q-11.8,5-23.66,9.8c-1.78.72-9,2.32-10,4,0,0-4.59,7.65,1,11.34s72.16,15.73,105.71-16c22.61-21.4,30.47-49.79,31.6-68.07C296.31,68.52,292.61,61.67,285.19,63.16Z" fill="#ffd527"></path><path d="M299.86,69.76a287.5,287.5,0,0,1-19.81,31.84,100.79,100.79,0,0,1-30.85,28.33c-13.44,7.84-28.49,12.47-42.77,18.49q-11.8,5-23.66,9.8c-1.78.72-9,2.32-10,4,0,0-4.59,7.65,1,11.34s72.16,15.73,105.71-16S314.08,78.67,308.86,72,299.86,69.76,299.86,69.76Z" fill="#ffe04a"></path><path d="M309.1,72.35a98.24,98.24,0,0,1-6.64,36A95.3,95.3,0,0,1,283,140.27c-9.07,9.57-20.59,15.43-33,19.39-14.09,4.47-28.86,7.28-43.44,9.62a174.46,174.46,0,0,1-34.67,2.42,6.13,6.13,0,0,0,1.89,1.92c5.58,3.69,72.16,15.73,105.71-16C312.48,126.31,314,80.14,309.1,72.35Z" fill="#f9cf1c"></path><path d="M167.59,143.5a2,2,0,0,0-3.15-.77,1.7,1.7,0,0,0-.95,1.14c-.71,2.52-1.46,10,2.82,9.9C170.77,153.67,168.43,145.78,167.59,143.5Z" fill="#875421"></path><path d="M172.22,162.22c-1.6-.16-2.1,1.48-1.53,2.62a1.93,1.93,0,0,0-.08.3c-.42,2.69-.91,8.21,2.78,8.64a1.86,1.86,0,0,0,1.78-1.35C176.21,169.29,176.82,162.68,172.22,162.22Z" fill="#875421"></path><path d="M282,70.12c8.55,4,18.3,4.36,27.58,4.29,3.71,0,7.53-.69,11.22-.53a7,7,0,0,1,5.75,2.84c.15-3.39.51-14.81-1.26-17.58a15.54,15.54,0,0,1-14.14,2.37c-8.12-2.67-4.56-5.64-13.76-5.34s-13.71.9-13.71.9L281,69.66l1,.45Z" fill="#d2d139"></path><path d="M207.38,197a7.24,7.24,0,0,0-2.85-4.26,1.81,1.81,0,0,0-2.7,1.88,2,2,0,0,0,0,.23,11.62,11.62,0,0,0,1.26,5.78c.79,1.56,2.7,3.56,4.43,1.81C208.87,201.07,207.88,198.59,207.38,197Z" fill="#875421"></path><path d="M297.4,74.26c-.46-1.1-.57-15.37-.57-15.37s6.62-1.25,11.15,0l1.64,15.52Z" fill="#bab620"></path><path d="M316.76,63.16c0,.8.56,10.77.56,10.77l3.53,0L320,61.56Z" fill="#bab620"></path><path d="M325.34,59.14s-.89-3.56-9.8-5.94-35.28.09-31.66,5.13,17.59-.23,22.38,2.14S316.14,66.86,325.34,59.14Z" fill="#ede958"></path><path d="M86,159.08v15.17a5.37,5.37,0,0,0,.77,2.78C89,180.67,96.6,189.5,119.2,189.5c19.11,0,27.36-7.64,30.15-11.15a5.4,5.4,0,0,0,1.18-3.36v-15.9" fill="#5dd32c"></path><ellipse cx="118.26" cy="159.08" rx="32.27" ry="19.23" fill="#5dd32c"></ellipse><ellipse cx="118.26" cy="159.08" rx="27.12" ry="16.4" fill="#5dd32c"></ellipse><path d="M98.59,160.55s15.94-2.79,17.93-2.53-11-8.65-11-8.65S111.79,156.4,98.59,160.55Z" fill="#5dd32c"></path><path d="M131.36,148.85s-10.19,8.56-12,9.14S136,160.55,136,160.55,124.59,157.4,131.36,148.85Z" fill="#5dd32c"></path><path d="M122.86,167c-1.57-3.35-4.24-6.95-4.13-7.69.19-1.32-5.18,4.08-8.93,8C114.05,164.71,119.07,164.28,122.86,167Z" fill="#5dd32c"></path><path d="M86,159.08v15.17a5.37,5.37,0,0,0,.77,2.78C89,180.67,96.6,189.5,119.2,189.5c19.11,0,27.36-7.64,30.15-11.15a5.4,5.4,0,0,0,1.18-3.36v-15.9" fill="#5dd32c"></path><ellipse cx="118.26" cy="159.08" rx="32.27" ry="19.23" fill="#093e3e" opacity="0.29"></ellipse><ellipse cx="118.26" cy="159.08" rx="27.12" ry="16.4" fill="#5dd32c"></ellipse><path d="M98.59,160.55s15.94-2.79,17.93-2.53-11-8.65-11-8.65S111.79,156.4,98.59,160.55Z" fill="#093e3e" opacity="0.29"></path><path d="M131.36,148.85s-10.19,8.56-12,9.14S136,160.55,136,160.55,124.59,157.4,131.36,148.85Z" fill="#093e3e" opacity="0.29"></path><path d="M122.86,167c-1.57-3.35-4.24-6.95-4.13-7.69.19-1.32-5.18,4.08-8.93,8C114.05,164.71,119.07,164.28,122.86,167Z" fill="#093e3e" opacity="0.29"></path><path d="M71.43,145.91v15.17a5.37,5.37,0,0,0,.77,2.78c2.19,3.64,9.84,12.47,32.44,12.47,19.11,0,27.36-7.64,30.15-11.15a5.4,5.4,0,0,0,1.18-3.36v-15.9" fill="#5dd32c"></path><ellipse cx="103.7" cy="145.91" rx="32.27" ry="19.23" fill="#5dd32c"></ellipse><ellipse cx="103.7" cy="145.91" rx="27.12" ry="16.4" fill="#5dd32c"></ellipse><path d="M84,147.37S100,144.58,102,144.85s-11-8.65-11-8.65S97.23,143.23,84,147.37Z" fill="#5dd32c"></path><path d="M116.81,135.67s-10.19,8.56-12,9.14,16.64,2.56,16.64,2.56S110,144.22,116.81,135.67Z" fill="#5dd32c"></path><path d="M108.31,153.81c-1.57-3.35-4.24-6.95-4.13-7.69.19-1.32-5.18,4.08-8.93,8C99.5,151.53,104.52,151.11,108.31,153.81Z" fill="#5dd32c"></path><path d="M71.43,145.91v15.17a5.37,5.37,0,0,0,.77,2.78c2.19,3.64,9.84,12.47,32.44,12.47,19.11,0,27.36-7.64,30.15-11.15a5.4,5.4,0,0,0,1.18-3.36v-15.9" fill="#5dd32c"></path><ellipse cx="103.7" cy="145.91" rx="32.27" ry="19.23" fill="#093e3e" opacity="0.29"></ellipse><ellipse cx="103.7" cy="145.91" rx="27.12" ry="16.4" fill="#5dd32c"></ellipse><path d="M84,147.37S100,144.58,102,144.85s-11-8.65-11-8.65S97.23,143.23,84,147.37Z" fill="#093e3e" opacity="0.29"></path><path d="M116.81,135.67s-10.19,8.56-12,9.14,16.64,2.56,16.64,2.56S110,144.22,116.81,135.67Z" fill="#093e3e" opacity="0.29"></path><path d="M108.31,153.81c-1.57-3.35-4.24-6.95-4.13-7.69.19-1.32-5.18,4.08-8.93,8C99.5,151.53,104.52,151.11,108.31,153.81Z" fill="#093e3e" opacity="0.29"></path><path d="M52.76,130.6v15.17a5.37,5.37,0,0,0,.77,2.78C55.72,152.19,63.37,161,86,161c19.11,0,27.36-7.64,30.15-11.15a5.4,5.4,0,0,0,1.18-3.36V130.6" fill="#5dd32c"></path><ellipse cx="85.02" cy="130.6" rx="32.27" ry="19.23" fill="#5dd32c"></ellipse><ellipse cx="85.02" cy="130.6" rx="27.12" ry="16.4" fill="#5dd32c"></ellipse><path d="M65.36,132.06s15.94-2.79,17.93-2.53-11-8.65-11-8.65S78.55,127.91,65.36,132.06Z" fill="#5dd32c"></path><path d="M98.13,120.36s-10.19,8.56-12,9.14,16.64,2.56,16.64,2.56S91.36,128.91,98.13,120.36Z" fill="#5dd32c"></path><path d="M89.63,138.5c-1.57-3.35-4.24-6.95-4.13-7.69.19-1.32-5.18,4.08-8.93,8C80.82,136.22,85.84,135.8,89.63,138.5Z" fill="#5dd32c"></path><path d="M52.76,130.6v15.17a5.37,5.37,0,0,0,.77,2.78C55.72,152.19,63.37,161,86,161c19.11,0,27.36-7.64,30.15-11.15a5.4,5.4,0,0,0,1.18-3.36V130.6" fill="#5dd32c"></path><ellipse cx="85.02" cy="130.6" rx="32.27" ry="19.23" fill="#093e3e" opacity="0.29"></ellipse><ellipse cx="85.02" cy="130.6" rx="27.12" ry="16.4" fill="#5dd32c"></ellipse><path d="M65.36,132.06s15.94-2.79,17.93-2.53-11-8.65-11-8.65S78.55,127.91,65.36,132.06Z" fill="#093e3e" opacity="0.29"></path><path d="M98.13,120.36s-10.19,8.56-12,9.14,16.64,2.56,16.64,2.56S91.36,128.91,98.13,120.36Z" fill="#093e3e" opacity="0.29"></path><path d="M89.63,138.5c-1.57-3.35-4.24-6.95-4.13-7.69.19-1.32-5.18,4.08-8.93,8C80.82,136.22,85.84,135.8,89.63,138.5Z" fill="#093e3e" opacity="0.29"></path></g></g></svg>