<svg xmlns="http://www.w3.org/2000/svg" xmlns:xlink="http://www.w3.org/1999/xlink" viewBox="0 0 400 300" width="406" height="306" class="illustration styles_illustrationTablet__1DWOa"><defs><linearGradient id="linear-gradient" x1="197.21" y1="167.23" x2="165.22" y2="223.82" gradientUnits="userSpaceOnUse"><stop offset="0" stop-color="#d4a397"></stop><stop offset="1" stop-color="#fff"></stop></linearGradient></defs><title>PP</title><g style="isolation: isolate;"><g id="Layer_2" data-name="Layer 2"><path d="M200.94,277,28.44,175.06c-5.49-3.08-10.2-8.15-4.85-11.46L196.71,63.82c2.6-1.61,6.54-2.66,9.18-1.13L387,167.78c5.49,3.19,6.48,12.1,1,15.29L223.68,276.84A22.94,22.94,0,0,1,200.94,277Z" fill="#fce0a2"></path><path d="M170.79,259.19c31.78-19,83.2-42.38,115-61.35-19.92-12.89-87.27-36.77-105.18-52.45a977,977,0,0,0-103,49.51c-1,.53-1.9,1.07-2.85,1.6C94.09,216.49,146.39,245.25,170.79,259.19Z" fill="url(#linear-gradient)" style="mix-blend-mode: multiply;"></path><path d="M239,107.88c-4.38-14.22-12.11-24.43-26.61-29.18-12.59-4.13-26.12-4.48-39.23-4-16.07.57-32.37,3-45.32,13.32-33.6,26.84-14.67,94.93,19.61,114.26,13.19,7.44,24.68,0,33.81,1.69s23,3,30.09-2,26.71-26,29.42-55.45C241.92,133.88,242.8,120.24,239,107.88Z" fill="#b2031c"></path><path d="M149.26,169.52a126.24,126.24,0,0,1-18.34-44.12,111.61,111.61,0,0,1-2-28.69,64.58,64.58,0,0,1,1.49-10.63c-.87.61-1.73,1.24-2.57,1.92-33.6,26.84-14.67,94.93,19.61,114.26,13.19,7.44,24.68,0,33.81,1.69,5.95,1.1,13.9,2,20.68,1.18-.29-.28-.6-.54-.89-.81-.84-.76-6.86-.3-8.3-.54a43.65,43.65,0,0,1-8.78-2.51,56.41,56.41,0,0,1-15.94-10A106.66,106.66,0,0,1,149.26,169.52Z" fill="#146666" opacity="0.47"></path><ellipse cx="175.99" cy="97.39" rx="31.61" ry="15.6" fill="#146666" opacity="0.47"></ellipse><path d="M176,109s-13.94-32.72-28.81-45.47c0,0,8.84-8.07,14.41-8.07s18.74,51.42,18.74,51.42S181.43,109.81,176,109Z" fill="#874529"></path><path d="M176.44,78.22q.55,1.26,1.11,2.51a2.3,2.3,0,0,0,.38,1.4q1.8-6.35,3.7-12.66c-2.27-5.39-4.44-10.82-6.55-16.27a54.67,54.67,0,0,0-4.29,11c1,2.56,1.92,5.11,3,7.65Q175,75,176.44,78.22Z" fill="#557c27"></path><path d="M176.9,85.28C174.42,84,173,77.76,172,75.35c-.8-1.91-1.56-3.84-2.32-5.77-2.08,13.24,1.54,23.86,4.35,27q1.47-5.64,3-11.26Z" fill="#557c27"></path><path d="M186.32,54.47a118.87,118.87,0,0,0-3.43-12.85,63.69,63.69,0,0,0-5.92,8.2q2.9,7.62,6,15.14Q184.62,59.7,186.32,54.47Z" fill="#557c27"></path><path d="M194.67,30.44a80.26,80.26,0,0,0-9.49,8.6q1.7,4.93,3,10Q191.27,39.68,194.67,30.44Z" fill="#557c27"></path><path d="M180.09,85.51q-1.54,5.53-3,11.09a63.39,63.39,0,0,0,14.82-14.37l-5,1.25C185.26,83.9,182.49,85.12,180.09,85.51Z" fill="#557c27"></path><path d="M181,82.14c1.72-.33,3.81-1.23,5.06-1.54l5.8-1.45,2.44-.61A45.38,45.38,0,0,0,199.93,64q-7.74,3-15.39,6.14Q182.74,76.15,181,82.14Z" fill="#557c27"></path><path d="M188.59,57.21q-1.5,4.64-2.93,9.3,7.36-3,14.8-5.86a48.7,48.7,0,0,0,0-11,119.07,119.07,0,0,0-11.3,7.23A1.87,1.87,0,0,1,188.59,57.21Z" fill="#557c27"></path><path d="M197.3,47.64c.89-.55,1.8-1.07,2.7-1.59a56,56,0,0,0-3.51-11.89q-3.3,9.12-6.34,18.32C192.46,50.78,194.83,49.15,197.3,47.64Z" fill="#557c27"></path><path d="M174,96.59c-.29,1.1-.58,2.2-.86,3.3-.48,1.87,2.42,2.67,2.89.8.35-1.36.71-2.72,1.06-4.08l-1.11.79C175.48,97.75,174.77,97.45,174,96.59Z" fill="#395613"></path><path d="M185.66,66.51q1.44-4.66,2.93-9.3a1.87,1.87,0,0,0,.61-.3,119.07,119.07,0,0,1,11.3-7.23c-.13-1.25-.31-2.46-.52-3.62-.9.52-1.8,1-2.7,1.59-2.46,1.51-4.84,3.14-7.16,4.84q3-9.2,6.34-18.32a36.39,36.39,0,0,0-1.79-3.73h0q-3.39,9.24-6.53,18.57-1.26-5-3-10c-.8.86-1.56,1.71-2.29,2.57a118.87,118.87,0,0,1,3.43,12.85Q184.61,59.7,183,65q-3.12-7.53-6-15.14c-.68,1.13-1.31,2.25-1.89,3.38,2.11,5.45,4.28,10.88,6.55,16.27q-1.91,6.31-3.7,12.66a2.3,2.3,0,0,1-.38-1.4q-.57-1.25-1.11-2.51Q175,75,173.74,71.84c-1-2.53-2-5.08-3-7.65a52,52,0,0,0-1.14,5.39c.75,1.93,1.52,3.86,2.32,5.77,1,2.41,2.45,8.68,4.93,9.93l.12,0q-1.56,5.62-3,11.26c.77.86,1.47,1.16,2,.81l1.11-.79q1.45-5.56,3-11.09c2.41-.4,5.17-1.61,6.82-2l5-1.25c.89-1.23,1.69-2.46,2.42-3.7l-2.44.61-5.8,1.45c-1.25.31-3.34,1.21-5.06,1.54q1.7-6,3.5-12Q192.19,67,199.93,64q.34-1.72.54-3.4Q193,63.48,185.66,66.51Z" fill="#395613"></path><path d="M221.54,163.19S207.79,184,223.9,199.5s66.12,4.75,72.38-10.95" fill="#b2031c"></path><path d="M221.54,163.19S207.79,184,223.9,199.5s63.7,6.65,70-9" fill="#146666" opacity="0.47"></path><path d="M221.54,163.19l78.85-16.9s9,23.56,0,36.88-21.06,20.2-34.81,22.13S224.55,195,221.54,163.19Z" fill="#ffeac8"></path><path d="M237.59,159.54l46.79-9.59s7.44,2.78,6.66,10.79-20.36,9.38-29.56,7.61S237.59,159.54,237.59,159.54Z" fill="#ffd599"></path><path d="M252.18,161.23S265,155.18,272,156.72s3.9,8.31-.45,8.28C268.2,165,252.18,161.23,252.18,161.23Z" fill="#8a3f3c"></path></g></g></svg>